<svg width="28" height="40" viewBox="0 0 28 40" fill="none" xmlns="http://www.w3.org/2000/svg">
<path d="M13.4981 7.45549L13.6181 7.25986L13.7831 7.52877L15.0041 5.16839C16.2951 2.6726 18.0085 1.5 19.5798 1.5C20.9954 1.5 22.517 2.44091 23.7631 4.4718C24.9938 6.47779 25.8039 9.34405 25.8039 12.5894C25.8039 16.318 24.7364 19.5261 23.2083 21.5164C22.2565 22.756 19.5032 27.2506 17.0591 31.3057C15.8203 33.3612 14.6372 35.3439 13.764 36.8125C13.7073 36.9079 13.6519 37.0011 13.5978 37.0921L3.99111 21.3854L3.96206 21.3379L3.92957 21.2927C2.48857 19.2875 1.5 16.1764 1.5 12.5894C1.5 9.34405 2.31013 6.47779 3.54089 4.4718C4.78692 2.44091 6.30855 1.5 7.72414 1.5C9.284 1.5 10.9833 2.65469 12.2723 5.11542L13.4981 7.45549Z" fill="white" stroke="black" stroke-width="3"/>
</svg>
